<?xml version="1.0" encoding="UTF-8" standalone="no"?>
<!-- Created with Inkscape (http://www.inkscape.org/) -->
<svg
   xmlns:svg="http://www.w3.org/2000/svg"
   xmlns="http://www.w3.org/2000/svg"
   version="1.0"
   width="1618"
   height="1000"
   viewBox="0 0 1618 1000"
   id="svg2"
   xml:space="preserve">
 <defs
   id="defs4" />
 <g
   id="Layer_x0020_1">
  
  <g
   id="_40870408">
   <path
   d="M 232.296,517.27 C 373.341,517.27 429.637,563.685 554.738,558.1421 C 689.675,552.16336 852.54,195.6041 983.902,201.6401 C 1105.391,207.22199 1199.404,478.6381 1344.946,514.9981"
   style="fill:none;stroke:#1f1a17;stroke-width:4.13386011"
   id="_40294848" />
   <line
   id="_39225024"
   class="fil0 str1"
   x1="232.29601"
   y1="517.27002"
   x2="232.29601"
   y2="815.83002"
   style="fill:none;stroke:#1f1a17;stroke-width:0.89999998" />
   <line
   id="_39792776"
   class="fil0 str1"
   x1="1344.95"
   y1="514.99902"
   x2="1344.95"
   y2="815.83002"
   style="fill:none;stroke:#1f1a17;stroke-width:0.89999998" />
   <path
   d="M 1344.95,815.83 L 1344.95,514.998 C 1199.407,478.6377 1105.395,207.221 983.906,201.64 C 852.544,195.60338 689.679,552.163 554.742,558.142 C 429.641,563.68492 373.345,517.2699 232.3,517.2699 L 232.3,815.8299 L 1344.95,815.8299 L 1344.95,815.83 z "
   style="fill:#00d1d1"
   id="_39193504" />
   <path
   d="M 707.64,299.94 L 696.5577,299.94 L 697.14117,297.58961 L 708.47387,297.58961 C 711.37348,289.25693 714.57427,282.97351 718.09041,278.74041 C 721.60654,274.50616 725.39081,272.38962 729.45731,272.38962 C 731.84078,272.38962 733.64078,272.98962 734.89038,274.18962 C 736.12345,275.40616 736.73999,277.14002 736.73999,279.42309 C 736.73999,281.10616 736.19077,282.55656 735.10652,283.74002 C 734.00691,284.92349 732.67345,285.52349 731.07423,285.52349 C 729.83998,285.52349 728.82423,285.1231 728.05651,284.30695 C 727.27343,283.48963 726.87423,282.45616 726.87423,281.22309 C 726.87423,278.45695 728.30691,276.62388 731.17344,275.70616 C 731.82422,275.52309 732.15729,275.35655 732.15729,275.22309 C 732.15729,274.87348 731.89037,274.55695 731.39076,274.29002 C 730.88997,274.03962 730.24037,273.90616 729.45729,273.90616 C 726.27422,273.90616 723.75729,275.47348 721.92422,278.62349 C 720.07343,281.75696 718.34075,287.92349 716.67422,297.10659 L 727.37382,297.10659 L 726.77382,299.4062 L 716.37422,299.4062 C 715.34075,306.37353 713.87383,313.0397 711.98997,319.4235 C 710.09076,325.78964 707.78997,331.9066 705.04036,337.7223 C 701.30689,345.63923 697.80729,351.2896 694.57346,354.6888 C 691.34078,358.0892 687.85771,359.7888 684.14076,359.7888 C 681.87422,359.7888 680.07422,359.1888 678.75729,358.00652 C 677.44036,356.82305 676.77422,355.20612 676.77422,353.1888 C 676.77422,351.47266 677.29036,350.02226 678.34036,348.85651 C 679.37383,347.67304 680.67422,347.08958 682.24036,347.08958 C 683.4569,347.08958 684.44075,347.47226 685.20729,348.23997 C 685.95729,349.00651 686.34115,349.98918 686.34115,351.18918 C 686.34115,353.60572 684.89076,355.3065 682.00768,356.32225 C 681.25768,356.58918 680.87382,356.8065 680.87382,357.00611 C 680.87382,357.33918 681.19035,357.65572 681.82461,357.95572 C 682.45768,358.27225 683.20768,358.42225 684.05689,358.42225 C 687.85768,358.42225 690.85768,356.55611 693.05689,352.83918 C 695.25728,349.10571 697.45768,341.42268 699.67343,329.77338 C 699.74075,329.37299 699.85768,328.68913 700.02421,327.72299 C 701.67421,317.92338 704.22421,308.65649 707.63996,299.93989 L 707.64,299.94 z "
   style="fill:#1f1a17;fill-rule:nonzero"
   id="_41360176" />
   <path
   d="M 228.233,891.615 C 230.74993,891.615 233.06607,890.44925 235.21686,888.13193 C 237.36647,885.79925 239.56686,881.99846 241.81686,876.73193 C 244.18261,871.24925 245.98261,866.69843 247.19915,863.03233 C 248.4334,859.36619 249.0334,856.73233 249.0334,855.09886 C 249.0334,853.14886 248.61647,851.59925 247.78261,850.48193 C 246.96647,849.36579 245.83261,848.79886 244.39993,848.79886 C 242.34954,848.79886 240.43261,849.7154 238.66686,851.53193 C 236.88339,853.34847 234.99954,856.34847 233.01646,860.5154 C 230.44992,865.9154 228.34992,871.3993 226.69992,876.9493 C 225.04992,882.4993 224.2326,886.2493 224.2326,888.1993 C 224.2326,889.36505 224.5326,890.23198 225.1326,890.78237 C 225.7326,891.33158 226.65032,891.61505 227.89992,891.61505 L 228.23299,891.61505 L 228.233,891.615 z M 266.033,876.5323 C 263.99914,882.59844 261.86607,886.8988 259.6326,889.4819 C 257.3826,892.04844 254.64953,893.3323 251.41567,893.3323 C 248.71567,893.3323 246.69953,892.63191 245.34953,891.21576 C 243.99953,889.79844 243.31685,887.66536 243.31685,884.8319 C 243.31685,883.56576 243.49992,881.84843 243.8826,879.68229 C 244.24992,877.51497 244.79913,875.01575 245.51607,872.14922 L 245.21607,872.14922 C 241.89953,880.34844 238.9326,885.88192 236.33299,888.73192 C 233.73338,891.59846 230.58338,893.03232 226.91606,893.03232 C 223.71645,893.03232 221.16645,891.88193 219.21645,889.56578 C 217.28298,887.24846 216.31684,884.18231 216.31684,880.33192 C 216.31684,877.08271 217.01605,873.69885 218.40031,870.19922 C 219.78338,866.69843 221.74992,863.34882 224.33299,860.11612 C 227.51606,856.01533 230.73339,852.94919 233.99914,850.89879 C 237.24954,848.84958 240.51647,847.81611 243.81647,847.81611 C 245.83261,847.81611 247.41647,848.39958 248.56568,849.58186 C 249.73261,850.74879 250.29954,852.33265 250.29954,854.31572 C 250.29954,855.13186 250.29954,855.73186 250.283,856.11572 C 250.26647,856.51611 250.2334,856.86572 250.21568,857.19879 L 250.39993,857.19879 L 253.81568,848.39957 C 254.2834,849.31611 254.69915,849.89839 255.11607,850.14878 C 255.51647,850.38264 256.08339,850.5161 256.79914,850.5161 C 257.74993,850.5161 258.533,850.38264 259.18261,850.11571 C 259.8334,849.84878 260.41568,849.4661 260.89993,848.94878 L 261.533,849.04917 C 258.21646,858.89839 255.56607,867.46497 253.583,874.74877 C 251.59993,882.01492 250.59953,886.68147 250.59953,888.73187 C 250.59953,889.78187 250.81567,890.51534 251.2326,890.9488 C 251.64953,891.3988 252.34992,891.61495 253.3326,891.61495 C 255.38299,891.61495 257.34953,890.34881 259.23339,887.81534 C 261.1326,885.26534 262.98221,881.38187 264.79993,876.14844 L 266.033,876.53229 L 266.033,876.5323 z "
   style="fill:#1f1a17;fill-rule:nonzero"
   id="_41553904" />
   <path
   d="M 1342,892.363 C 1344.4331,892.363 1346.5165,891.47954 1348.2339,889.69607 C 1349.9335,887.92914 1351.6165,884.863 1353.2831,880.49646 C 1355.2331,875.3126 1356.7662,870.37916 1357.9,865.69606 C 1359.0162,861.01299 1359.5831,857.32913 1359.5831,854.66216 C 1359.5831,852.96255 1359.25,851.69641 1358.5839,850.84602 C 1357.9165,849.99563 1356.9161,849.57988 1355.5839,849.57988 C 1353.7165,849.57988 1351.9331,850.46216 1350.2335,852.21256 C 1348.5173,853.97949 1346.5673,856.94642 1344.4,861.14642 C 1342.0165,865.67949 1340.0665,870.4795 1338.55,875.52872 C 1337.0335,880.59565 1336.2835,884.41298 1336.2835,886.99602 C 1336.2835,888.67909 1336.7831,889.99602 1337.8,890.94563 C 1338.8004,891.89524 1340.2,892.36295 1342,892.36295 L 1342,892.363 z M 1341.6504,832.996 C 1341.9173,832.27907 1342.1169,831.59639 1342.2669,830.94679 C 1342.4169,830.296 1342.4831,829.81293 1342.4831,829.47986 C 1342.4831,828.31293 1339.9496,827.71293 1334.8673,827.67986 C 1333.0165,827.64679 1331.5508,827.61254 1330.4665,827.57947 L 1330.4665,826.31333 C 1333.5339,826.246 1336.75,826.14679 1340.1504,825.99679 C 1343.5331,825.84679 1347.5004,825.61293 1352.0665,825.27986 L 1340.383,865.99606 L 1340.7834,866.07992 C 1343.6169,859.51299 1346.1669,854.91262 1348.4665,852.29642 C 1350.7672,849.6791 1353.2995,848.36335 1356.0669,848.36335 C 1359.3161,848.36335 1361.9334,849.89642 1363.9165,852.9791 C 1365.8995,856.04642 1366.8999,860.14603 1366.8999,865.2626 C 1366.8999,872.77914 1364.3995,879.4122 1359.3999,885.163 C 1354.4003,890.91261 1348.6672,893.77915 1342.183,893.77915 C 1337.6996,893.77915 1334.05,892.49529 1331.2507,889.94529 C 1328.4503,887.39529 1327.0507,884.12954 1327.0507,880.14568 C 1327.0838,879.49607 1327.1665,878.77914 1327.3165,877.97954 C 1327.4665,877.17875 1327.6838,876.34607 1327.9838,875.46261 L 1341.6503,832.99601 L 1341.6504,832.996 z "
   style="fill:#1f1a17;fill-rule:nonzero"
   id="_41363512" />
   <polyline
   id="_40610016"
   class="fil0 str0"
   points="98.7662,77.1957 98.7662,815.83 1545.79,815.83 "
   style="fill:none;stroke:#1f1a17;stroke-width:4.13386011" />
  </g>
 </g>
</svg>